<svg width="486" height="489" viewBox="0 0 486 489" fill="none" xmlns="http://www.w3.org/2000/svg">
  <path d="M8.50219 451.64V460.52H24.0542V466.76H8.50219V479H0.726188V445.4H26.1182V451.64H8.50219ZM30.8544 443.384H38.3424V479H30.8544V443.384ZM55.7079 452.792C59.7079 452.792 62.7799 453.752 64.9239 455.672C67.0679 457.56 68.1399 460.424 68.1399 464.264V479H61.1319V475.784C59.7239 478.184 57.0999 479.384 53.2599 479.384C51.2759 479.384 49.5479 479.048 48.0759 478.376C46.6359 477.704 45.5319 476.776 44.7639 475.592C43.9959 474.408 43.6119 473.064 43.6119 471.56C43.6119 469.16 44.5079 467.272 46.2999 465.896C48.1239 464.52 50.9239 463.832 54.6999 463.832H60.6519C60.6519 462.2 60.1559 460.952 59.1639 460.088C58.1719 459.192 56.6839 458.744 54.6999 458.744C53.3239 458.744 51.9639 458.968 50.6199 459.416C49.3079 459.832 48.1879 460.408 47.2599 461.144L44.5719 455.912C45.9799 454.92 47.6599 454.152 49.6119 453.608C51.5959 453.064 53.6279 452.792 55.7079 452.792ZM55.1319 474.344C56.4119 474.344 57.5479 474.056 58.5399 473.48C59.5319 472.872 60.2359 471.992 60.6519 470.84V468.2H55.5159C52.4439 468.2 50.9079 469.208 50.9079 471.224C50.9079 472.184 51.2759 472.952 52.0119 473.528C52.7799 474.072 53.8199 474.344 55.1319 474.344ZM83.6049 479.384C81.4609 479.384 79.3649 479.128 77.3169 478.616C75.2689 478.072 73.6369 477.4 72.4209 476.6L74.9169 471.224C76.0689 471.96 77.4609 472.568 79.0929 473.048C80.7249 473.496 82.3249 473.72 83.8929 473.72C87.0609 473.72 88.6449 472.936 88.6449 471.368C88.6449 470.632 88.2129 470.104 87.3489 469.784C86.4849 469.464 85.1569 469.192 83.3649 468.968C81.2529 468.648 79.5089 468.28 78.1329 467.864C76.7569 467.448 75.5569 466.712 74.5329 465.656C73.5409 464.6 73.0449 463.096 73.0449 461.144C73.0449 459.512 73.5089 458.072 74.4369 456.824C75.3969 455.544 76.7729 454.552 78.5649 453.848C80.3889 453.144 82.5329 452.792 84.9969 452.792C86.8209 452.792 88.6289 453 90.4209 453.416C92.2449 453.8 93.7489 454.344 94.9329 455.048L92.4369 460.376C90.1649 459.096 87.6849 458.456 84.9969 458.456C83.3969 458.456 82.1969 458.68 81.3969 459.128C80.5969 459.576 80.1969 460.152 80.1969 460.856C80.1969 461.656 80.6289 462.216 81.4929 462.536C82.3569 462.856 83.7329 463.16 85.6209 463.448C87.7329 463.8 89.4609 464.184 90.8049 464.6C92.1489 464.984 93.3169 465.704 94.3089 466.76C95.3009 467.816 95.7969 469.288 95.7969 471.176C95.7969 472.776 95.3169 474.2 94.3569 475.448C93.3969 476.696 91.9889 477.672 90.1329 478.376C88.3089 479.048 86.1329 479.384 83.6049 479.384ZM116.113 452.792C119.313 452.792 121.889 453.752 123.841 455.672C125.825 457.592 126.817 460.44 126.817 464.216V479H119.329V465.368C119.329 463.32 118.881 461.8 117.985 460.808C117.089 459.784 115.793 459.272 114.097 459.272C112.209 459.272 110.705 459.864 109.585 461.048C108.465 462.2 107.905 463.928 107.905 466.232V479H100.417V443.384H107.905V455.864C108.897 454.872 110.097 454.12 111.505 453.608C112.913 453.064 114.449 452.792 116.113 452.792ZM142.292 479.384C140.148 479.384 138.052 479.128 136.004 478.616C133.956 478.072 132.324 477.4 131.108 476.6L133.604 471.224C134.756 471.96 136.148 472.568 137.78 473.048C139.412 473.496 141.012 473.72 142.58 473.72C145.748 473.72 147.332 472.936 147.332 471.368C147.332 470.632 146.9 470.104 146.036 469.784C145.172 469.464 143.844 469.192 142.052 468.968C139.94 468.648 138.196 468.28 136.82 467.864C135.444 467.448 134.244 466.712 133.22 465.656C132.228 464.6 131.732 463.096 131.732 461.144C131.732 459.512 132.196 458.072 133.124 456.824C134.084 455.544 135.46 454.552 137.252 453.848C139.076 453.144 141.22 452.792 143.684 452.792C145.508 452.792 147.316 453 149.108 453.416C150.932 453.8 152.436 454.344 153.62 455.048L151.124 460.376C148.852 459.096 146.372 458.456 143.684 458.456C142.084 458.456 140.884 458.68 140.084 459.128C139.284 459.576 138.884 460.152 138.884 460.856C138.884 461.656 139.316 462.216 140.18 462.536C141.044 462.856 142.42 463.16 144.308 463.448C146.42 463.8 148.148 464.184 149.492 464.6C150.836 464.984 152.004 465.704 152.996 466.76C153.988 467.816 154.484 469.288 154.484 471.176C154.484 472.776 154.004 474.2 153.044 475.448C152.084 476.696 150.676 477.672 148.82 478.376C146.996 479.048 144.82 479.384 142.292 479.384ZM171.584 479.384C168.832 479.384 166.352 478.824 164.144 477.704C161.968 476.552 160.256 474.968 159.008 472.952C157.792 470.936 157.184 468.648 157.184 466.088C157.184 463.528 157.792 461.24 159.008 459.224C160.256 457.208 161.968 455.64 164.144 454.52C166.352 453.368 168.832 452.792 171.584 452.792C174.304 452.792 176.672 453.368 178.688 454.52C180.736 455.64 182.224 457.256 183.152 459.368L177.344 462.488C176 460.12 174.064 458.936 171.536 458.936C169.584 458.936 167.968 459.576 166.688 460.856C165.408 462.136 164.768 463.88 164.768 466.088C164.768 468.296 165.408 470.04 166.688 471.32C167.968 472.6 169.584 473.24 171.536 473.24C174.096 473.24 176.032 472.056 177.344 469.688L183.152 472.856C182.224 474.904 180.736 476.504 178.688 477.656C176.672 478.808 174.304 479.384 171.584 479.384ZM199.424 479.384C196.704 479.384 194.256 478.824 192.08 477.704C189.936 476.552 188.256 474.968 187.04 472.952C185.824 470.936 185.216 468.648 185.216 466.088C185.216 463.528 185.824 461.24 187.04 459.224C188.256 457.208 189.936 455.64 192.08 454.52C194.256 453.368 196.704 452.792 199.424 452.792C202.144 452.792 204.576 453.368 206.72 454.52C208.864 455.64 210.544 457.208 211.76 459.224C212.976 461.24 213.584 463.528 213.584 466.088C213.584 468.648 212.976 470.936 211.76 472.952C210.544 474.968 208.864 476.552 206.72 477.704C204.576 478.824 202.144 479.384 199.424 479.384ZM199.424 473.24C201.344 473.24 202.912 472.6 204.128 471.32C205.376 470.008 206 468.264 206 466.088C206 463.912 205.376 462.184 204.128 460.904C202.912 459.592 201.344 458.936 199.424 458.936C197.504 458.936 195.92 459.592 194.672 460.904C193.424 462.184 192.8 463.912 192.8 466.088C192.8 468.264 193.424 470.008 194.672 471.32C195.92 472.6 197.504 473.24 199.424 473.24ZM225.741 456.584C226.637 455.336 227.837 454.392 229.341 453.752C230.877 453.112 232.637 452.792 234.621 452.792V459.704C233.789 459.64 233.229 459.608 232.941 459.608C230.797 459.608 229.117 460.216 227.901 461.432C226.685 462.616 226.077 464.408 226.077 466.808V479H218.589V453.176H225.741V456.584ZM264.135 466.184C264.135 466.28 264.087 466.952 263.991 468.2H244.455C244.807 469.8 245.639 471.064 246.951 471.992C248.263 472.92 249.895 473.384 251.847 473.384C253.191 473.384 254.375 473.192 255.399 472.808C256.455 472.392 257.431 471.752 258.327 470.888L262.311 475.208C259.879 477.992 256.327 479.384 251.655 479.384C248.743 479.384 246.167 478.824 243.927 477.704C241.687 476.552 239.959 474.968 238.743 472.952C237.527 470.936 236.919 468.648 236.919 466.088C236.919 463.56 237.511 461.288 238.695 459.272C239.911 457.224 241.559 455.64 243.639 454.52C245.751 453.368 248.103 452.792 250.695 452.792C253.223 452.792 255.511 453.336 257.559 454.424C259.607 455.512 261.207 457.08 262.359 459.128C263.543 461.144 264.135 463.496 264.135 466.184ZM250.743 458.456C249.047 458.456 247.623 458.936 246.471 459.896C245.319 460.856 244.615 462.168 244.359 463.832H257.079C256.823 462.2 256.119 460.904 254.967 459.944C253.815 458.952 252.407 458.456 250.743 458.456ZM280.688 479.576C278.032 479.576 275.456 479.224 272.96 478.52C270.496 477.784 268.512 476.84 267.008 475.688L269.648 469.832C271.088 470.888 272.8 471.736 274.784 472.376C276.768 473.016 278.752 473.336 280.736 473.336C282.944 473.336 284.576 473.016 285.632 472.376C286.688 471.704 287.216 470.824 287.216 469.736C287.216 468.936 286.896 468.28 286.256 467.768C285.648 467.224 284.848 466.792 283.856 466.472C282.896 466.152 281.584 465.8 279.92 465.416C277.36 464.808 275.264 464.2 273.632 463.592C272 462.984 270.592 462.008 269.408 460.664C268.256 459.32 267.68 457.528 267.68 455.288C267.68 453.336 268.208 451.576 269.264 450.008C270.32 448.408 271.904 447.144 274.016 446.216C276.16 445.288 278.768 444.824 281.84 444.824C283.984 444.824 286.08 445.08 288.128 445.592C290.176 446.104 291.968 446.84 293.504 447.8L291.104 453.704C288 451.944 284.896 451.064 281.792 451.064C279.616 451.064 278 451.416 276.944 452.12C275.92 452.824 275.408 453.752 275.408 454.904C275.408 456.056 276 456.92 277.184 457.496C278.4 458.04 280.24 458.584 282.704 459.128C285.264 459.736 287.36 460.344 288.992 460.952C290.624 461.56 292.016 462.52 293.168 463.832C294.352 465.144 294.944 466.92 294.944 469.16C294.944 471.08 294.4 472.84 293.312 474.44C292.256 476.008 290.656 477.256 288.512 478.184C286.368 479.112 283.76 479.576 280.688 479.576ZM312.209 479.384C309.457 479.384 306.977 478.824 304.769 477.704C302.593 476.552 300.881 474.968 299.633 472.952C298.417 470.936 297.809 468.648 297.809 466.088C297.809 463.528 298.417 461.24 299.633 459.224C300.881 457.208 302.593 455.64 304.769 454.52C306.977 453.368 309.457 452.792 312.209 452.792C314.929 452.792 317.297 453.368 319.313 454.52C321.361 455.64 322.849 457.256 323.777 459.368L317.969 462.488C316.625 460.12 314.689 458.936 312.161 458.936C310.209 458.936 308.593 459.576 307.313 460.856C306.033 462.136 305.393 463.88 305.393 466.088C305.393 468.296 306.033 470.04 307.313 471.32C308.593 472.6 310.209 473.24 312.161 473.24C314.721 473.24 316.657 472.056 317.969 469.688L323.777 472.856C322.849 474.904 321.361 476.504 319.313 477.656C317.297 478.808 314.929 479.384 312.209 479.384ZM335.241 456.584C336.137 455.336 337.337 454.392 338.841 453.752C340.377 453.112 342.137 452.792 344.121 452.792V459.704C343.289 459.64 342.729 459.608 342.441 459.608C340.297 459.608 338.617 460.216 337.401 461.432C336.185 462.616 335.577 464.408 335.577 466.808V479H328.089V453.176H335.241V456.584ZM358.849 452.792C362.849 452.792 365.921 453.752 368.065 455.672C370.209 457.56 371.281 460.424 371.281 464.264V479H364.273V475.784C362.865 478.184 360.241 479.384 356.401 479.384C354.417 479.384 352.689 479.048 351.217 478.376C349.777 477.704 348.673 476.776 347.905 475.592C347.137 474.408 346.753 473.064 346.753 471.56C346.753 469.16 347.649 467.272 349.441 465.896C351.265 464.52 354.065 463.832 357.841 463.832H363.793C363.793 462.2 363.297 460.952 362.305 460.088C361.313 459.192 359.825 458.744 357.841 458.744C356.465 458.744 355.105 458.968 353.761 459.416C352.449 459.832 351.329 460.408 350.401 461.144L347.713 455.912C349.121 454.92 350.801 454.152 352.753 453.608C354.737 453.064 356.769 452.792 358.849 452.792ZM358.273 474.344C359.553 474.344 360.689 474.056 361.681 473.48C362.673 472.872 363.377 471.992 363.793 470.84V468.2H358.657C355.585 468.2 354.049 469.208 354.049 471.224C354.049 472.184 354.417 472.952 355.153 473.528C355.921 474.072 356.961 474.344 358.273 474.344ZM393.322 452.792C395.722 452.792 397.898 453.352 399.85 454.472C401.834 455.56 403.386 457.112 404.506 459.128C405.626 461.112 406.186 463.432 406.186 466.088C406.186 468.744 405.626 471.08 404.506 473.096C403.386 475.08 401.834 476.632 399.85 477.752C397.898 478.84 395.722 479.384 393.322 479.384C390.026 479.384 387.434 478.344 385.546 476.264V488.312H378.058V453.176H385.21V456.152C387.066 453.912 389.77 452.792 393.322 452.792ZM392.026 473.24C393.946 473.24 395.514 472.6 396.73 471.32C397.978 470.008 398.602 468.264 398.602 466.088C398.602 463.912 397.978 462.184 396.73 460.904C395.514 459.592 393.946 458.936 392.026 458.936C390.106 458.936 388.522 459.592 387.274 460.904C386.058 462.184 385.45 463.912 385.45 466.088C385.45 468.264 386.058 470.008 387.274 471.32C388.522 472.6 390.106 473.24 392.026 473.24ZM411.198 453.176H418.686V479H411.198V453.176ZM414.942 449.576C413.566 449.576 412.446 449.176 411.582 448.376C410.718 447.576 410.286 446.584 410.286 445.4C410.286 444.216 410.718 443.224 411.582 442.424C412.446 441.624 413.566 441.224 414.942 441.224C416.318 441.224 417.438 441.608 418.302 442.376C419.166 443.144 419.598 444.104 419.598 445.256C419.598 446.504 419.166 447.544 418.302 448.376C417.438 449.176 416.318 449.576 414.942 449.576ZM441.332 452.792C444.532 452.792 447.108 453.752 449.06 455.672C451.044 457.592 452.036 460.44 452.036 464.216V479H444.548V465.368C444.548 463.32 444.1 461.8 443.204 460.808C442.308 459.784 441.012 459.272 439.316 459.272C437.428 459.272 435.924 459.864 434.804 461.048C433.684 462.2 433.124 463.928 433.124 466.232V479H425.636V453.176H432.788V456.2C433.78 455.112 435.012 454.28 436.484 453.704C437.956 453.096 439.572 452.792 441.332 452.792ZM485.744 453.176V474.68C485.744 479.416 484.512 482.936 482.048 485.24C479.584 487.544 475.984 488.696 471.248 488.696C468.752 488.696 466.384 488.392 464.144 487.784C461.904 487.176 460.048 486.296 458.576 485.144L461.552 479.768C462.64 480.664 464.016 481.368 465.68 481.88C467.344 482.424 469.008 482.696 470.672 482.696C473.264 482.696 475.168 482.104 476.384 480.92C477.632 479.768 478.256 478.008 478.256 475.64V474.536C476.304 476.68 473.584 477.752 470.096 477.752C467.728 477.752 465.552 477.24 463.568 476.216C461.616 475.16 460.064 473.688 458.912 471.8C457.76 469.912 457.184 467.736 457.184 465.272C457.184 462.808 457.76 460.632 458.912 458.744C460.064 456.856 461.616 455.4 463.568 454.376C465.552 453.32 467.728 452.792 470.096 452.792C473.84 452.792 476.688 454.024 478.64 456.488V453.176H485.744ZM471.584 471.608C473.568 471.608 475.184 471.032 476.432 469.88C477.712 468.696 478.352 467.16 478.352 465.272C478.352 463.384 477.712 461.864 476.432 460.712C475.184 459.528 473.568 458.936 471.584 458.936C469.6 458.936 467.968 459.528 466.688 460.712C465.408 461.864 464.768 463.384 464.768 465.272C464.768 467.16 465.408 468.696 466.688 469.88C467.968 471.032 469.6 471.608 471.584 471.608Z" fill="#8B8B8B"/>
  <rect x="43" width="400" height="400" rx="200" fill="#1C7404"/>
  <path fill-rule="evenodd" clip-rule="evenodd" d="M230.2 61.632C213.292 63.438 196.499 67.606 192.704 70.938C188.372 74.742 188.378 79.671 192.725 87C192.986 87.44 194.134 89.42 195.276 91.4C199.308 98.391 203.575 100.523 209.686 98.597C213.458 97.408 214.037 97.246 216.8 96.61C218.34 96.255 220.32 95.789 221.2 95.575C230.073 93.412 249.293 93.117 259.8 94.982C266.668 96.201 267.716 96.449 273.6 98.251C278.642 99.795 282.908 99.315 285.636 96.896C286.705 95.949 291 89.614 291 88.985C291 88.862 291.604 87.818 292.342 86.664C294.816 82.797 295.2 81.655 295.194 78.2C295.184 72.345 292.695 69.942 284 67.391C282.68 67.004 281.15 66.543 280.6 66.367C279.028 65.863 272.855 64.397 270.519 63.973C264.445 62.868 260.835 62.313 257.4 61.955C252.115 61.404 234.31 61.193 230.2 61.632ZM154.765 92.754C148.7 94.318 128.963 116.309 121.333 130.003C120.782 130.991 119.728 132.88 118.99 134.2C118.253 135.52 117.037 137.86 116.288 139.4C115.539 140.94 114.769 142.502 114.577 142.872C114.385 143.242 113.252 145.942 112.059 148.872C110.216 153.399 109.166 156.511 106.616 165C102.411 178.994 105.06 185.449 115.323 186.22C131.359 187.423 135.26 185.498 137.839 175.107C141.205 161.544 149.652 143.707 156.076 136.598C156.474 136.158 157.61 134.718 158.6 133.398C159.59 132.079 163.151 128.234 166.514 124.854C175.264 116.058 175.871 113.486 171.061 105.6C170.591 104.83 170.081 103.93 169.928 103.6C169.774 103.27 169.053 102.064 168.324 100.919C167.596 99.775 167 98.675 167 98.476C167 95.37 159.044 91.65 154.765 92.754ZM110.808 215.002C105.709 217.098 103.846 221.161 104.94 227.8C105.78 232.892 108.869 243.865 110.572 247.8C110.762 248.24 111.679 250.49 112.609 252.8C120.271 271.835 134.383 291.416 150.2 304.961C155.196 309.239 160.705 309.006 165.1 304.331C166.145 303.219 167 302.141 167 301.935C167 301.73 167.603 300.618 168.341 299.466C169.078 298.313 170.283 296.296 171.017 294.985C175.718 286.591 175.249 284.251 167.274 276.299C155.77 264.827 148.471 254.2 143.031 241C142.306 239.24 141.563 237.44 141.381 237C140.512 234.902 138.95 229.725 137.822 225.2C135.376 215.399 133.231 214.005 120.6 214.014C113.662 214.019 113.051 214.08 110.808 215.002ZM354.857 214.622C350.775 216.119 348.673 218.558 347.626 223.013C346.202 229.068 344.123 235.744 342.334 240C342.011 240.77 341.599 241.76 341.421 242.2C340.693 243.99 337.709 249.929 336.598 251.8C335.945 252.9 335.284 254.07 335.13 254.4C333.087 258.761 325.696 268.121 318.862 275C308.595 285.335 308.538 285.928 316.519 299.462C320.339 305.94 322.964 308 327.4 308C331.499 308 336.362 304.337 346.007 293.984C351.547 288.037 360.403 276.218 363.227 271C363.466 270.56 364.39 268.917 365.282 267.349C366.174 265.781 367.803 262.631 368.902 260.349C370.674 256.669 371.369 255.132 372.586 252.2C372.769 251.76 373.189 250.77 373.52 250C374.033 248.806 376.118 242.63 377.368 238.6C378.359 235.403 380.04 228.202 380.416 225.539C381.078 220.856 377.885 215.979 373.283 214.641C370.33 213.783 357.183 213.769 354.857 214.622ZM202.233 301.741C200.886 302.193 197 305.36 197 306.005C197 306.188 196.1 307.788 195 309.561C193.9 311.335 193 312.888 193 313.012C193 313.137 192.355 314.247 191.566 315.48C186.894 322.783 189.858 329.768 198.75 332.412C200.318 332.878 202.05 333.405 202.6 333.583C220.336 339.327 245.452 340.754 266.6 337.22C273.109 336.133 285.934 332.73 289.854 331.051C295.59 328.593 296.947 321.8 293.051 315.043C291.923 313.086 291 311.418 291 311.336C291 310.935 286.826 304.509 286.16 303.882C283.494 301.378 278.945 300.602 274.6 301.911C255.416 307.688 237.171 308.372 217.6 304.047C216.09 303.714 212.932 302.849 209.8 301.912C207.758 301.301 203.809 301.211 202.233 301.741Z" fill="white"/>
  <path fill-rule="evenodd" clip-rule="evenodd" d="M319.247 95.7085C317.087 96.407 316.046 98.6042 316.695 101.092C319.281 110.997 325.642 124.637 330.447 130.579C331.167 131.468 331.004 131.427 328.24 130.017C319.458 125.535 312.43 119.485 306.086 110.944C304.188 108.389 303.257 107.72 301.6 107.72C298.346 107.72 296.319 111.499 298.124 114.2C304.218 123.316 313.595 131.773 323.402 137C325.692 138.22 325.661 138.17 324.28 138.42C315.141 140.07 303.293 144.394 295.28 149.003C288.228 153.059 286.839 154.644 287.843 157.489C288.88 160.428 291.876 161.165 294.777 159.197C298.201 156.874 301.461 155.028 304.88 153.477C306.068 152.938 307.267 152.394 307.544 152.268C310.559 150.902 316.914 148.821 321.698 147.633C323.811 147.109 330.052 145.822 330.166 145.888C330.214 145.915 329.096 147.112 327.682 148.548C318.976 157.392 311.173 170.951 305.231 187.56C304.869 188.572 304.289 190.192 303.943 191.16C302.205 196.016 302.188 197.21 303.833 198.854C306.094 201.115 309.601 200.306 310.706 197.268C310.839 196.9 311.352 195.412 311.846 193.96C313.235 189.873 315.23 184.655 316.558 181.64C319.157 175.739 320.768 172.523 323.332 168.12C325.278 164.778 328.919 159.48 330.261 158.038C330.425 157.862 330.804 157.43 331.102 157.078C331.941 156.091 334.025 153.932 334.084 153.99C334.112 154.019 334.034 154.474 333.909 155.001C330.691 168.597 338.464 183.07 349.392 183.829C360.762 184.62 369.649 169.787 366.498 155.28C366.34 154.554 366.261 153.96 366.322 153.96C366.566 153.96 369.75 157.597 371.791 160.208C373.134 161.925 375.916 166.157 377.31 168.6C379.114 171.762 379.533 172.553 381.009 175.572C383.715 181.105 386.565 188.152 388.834 194.915C389.866 197.992 390 198.284 390.687 198.941C393.362 201.503 397.723 199.678 397.719 195.998C397.715 192.414 389.879 173.667 384.48 164.325C382.449 160.812 377.727 153.917 376.723 153C376.675 152.956 376.178 152.38 375.619 151.72C374.505 150.404 372.898 148.721 371.131 147.019C370.502 146.414 370.012 145.895 370.041 145.865C370.151 145.756 377.227 147.241 379.92 147.938C389.558 150.436 397.419 153.844 404.953 158.789C407.083 160.188 407.765 160.441 409.012 160.294C411.696 159.98 413.346 157.368 412.49 154.791C411.006 150.324 388.796 140.412 375.64 138.346C374.774 138.21 374.786 138.108 375.72 137.657C381.269 134.982 387.294 130.668 392.4 125.715C395.745 122.47 397.165 120.884 399.953 117.287C403.017 113.332 403.301 112.655 402.728 110.685C401.636 106.925 397.278 106.716 394.726 110.3C388.539 118.989 380.311 126.099 371.429 130.432C369.35 131.447 369.052 131.51 369.706 130.798C371.839 128.475 375.759 121.679 378.298 115.905C380.597 110.675 383.736 101.698 383.88 99.9389C384.082 97.4848 382.317 95.6438 379.76 95.6413C377.527 95.639 376.343 96.5818 375.608 98.9482C370.5 115.387 364.272 126.51 357.5 131.292C356.185 132.22 356.257 132.227 355.685 131.12C355.424 130.614 354.812 129.779 354.325 129.263L353.44 128.327L353.438 126.863C353.435 125.05 353.033 124.023 351.955 123.074C351.082 122.305 350.964 122.292 350.944 122.96C350.87 125.322 350.552 127.161 350.209 127.21C349.8 127.268 349.779 127.18 349.527 124.375C349.334 122.224 349.364 122.276 348.638 122.831C347.383 123.788 346.646 125.732 346.925 127.349L347.076 128.228L346.285 128.968C345.85 129.375 345.198 130.215 344.836 130.834C344.475 131.453 344.163 131.984 344.143 132.013C343.957 132.287 341.016 129.92 339.348 128.154C334.001 122.491 329.111 112.869 325.124 100.162C323.906 96.2787 321.985 94.823 319.247 95.7085Z" fill="#FF0000"/>
</svg>
